<svg width="42" height="43" viewBox="0 0 42 43" fill="none" xmlns="http://www.w3.org/2000/svg">
<path d="M40.7606 1.37361C40.5329 1.14273 40.2452 0.982883 39.9313 0.912855C39.6174 0.842826 39.2904 0.865529 38.9888 0.978294L1.86375 14.7283C1.54358 14.852 1.26793 15.072 1.07341 15.359C0.878896 15.646 0.774719 15.9865 0.774719 16.3353C0.774719 16.6841 0.878896 17.0246 1.07341 17.3116C1.26793 17.5987 1.54358 17.8187 1.86375 17.9424L16.3594 23.8377L27.0581 12.9064L29.4375 15.3299L18.6881 26.2783L24.4931 41.0424C24.6182 41.3621 24.8346 41.6363 25.1144 41.8294C25.3943 42.0225 25.7245 42.1255 26.0625 42.1252C26.4035 42.118 26.7344 42.0058 27.0116 41.8033C27.2887 41.6008 27.4991 41.3175 27.615 40.9908L41.115 3.17829C41.23 2.87421 41.2577 2.5431 41.195 2.22357C41.1322 1.90404 40.9816 1.60926 40.7606 1.37361Z" fill="white"/>
</svg>
